<?xml version="1.0" encoding="UTF-8" standalone="no"?>
<!DOCTYPE svg PUBLIC "-//W3C//DTD SVG 1.1//EN" "http://www.w3.org/Graphics/SVG/1.1/DTD/svg11.dtd">
<svg width="100%" height="100%" viewBox="0 0 72 72" version="1.1" xmlns="http://www.w3.org/2000/svg" xmlns:xlink="http://www.w3.org/1999/xlink" xml:space="preserve" xmlns:serif="http://www.serif.com/" style="fill-rule:evenodd;clip-rule:evenodd;stroke-linecap:round;stroke-linejoin:round;stroke-miterlimit:1.5;">
    <g transform="matrix(1,0,0,1,-29.5,-31.5)">
        <circle cx="65.5" cy="67.5" r="34.5" style="fill:none;stroke:rgb(255,0,0);stroke-width:2.57px;"/>
    </g>
    <g transform="matrix(1,0,0,1,-28,-28)">
        <path d="M81.869,49.048C78.618,45.168 74.128,42.361 69.011,41.238L69.31,39.877C74.729,41.066 79.484,44.037 82.929,48.144L81.869,49.048ZM45.071,48.144C48.516,44.037 53.271,41.066 58.69,39.877L58.989,41.238C53.872,42.361 49.382,45.168 46.131,49.048L45.071,48.144Z" style="fill:rgb(255,0,0);"/>
    </g>
    <g transform="matrix(0.796849,0,0,0.796849,-18.1857,-30.0403)">
        <path d="M68,48L69.352,51.139L72.755,51.455L70.187,53.711L70.939,57.045L68,55.3L65.061,57.045L65.813,53.711L63.245,51.455L66.648,51.139L68,48Z" style="fill:rgb(255,0,0);"/>
    </g>
    <g transform="matrix(1,0,0,-1,-28,100.048)">
        <path d="M81.869,49.048C78.618,45.168 74.128,42.361 69.011,41.238L69.31,39.877C74.729,41.066 79.484,44.037 82.929,48.144L81.869,49.048ZM45.071,48.144C48.516,44.037 53.271,41.066 58.69,39.877L58.989,41.238C53.872,42.361 49.382,45.168 46.131,49.048L45.071,48.144Z" style="fill:rgb(255,0,0);"/>
    </g>
    <g transform="matrix(0.797166,0,0,0.797166,-18.2073,17.6394)">
        <path d="M68,48L69.352,51.139L72.755,51.455L70.187,53.711L70.939,57.045L68,55.3L65.061,57.045L65.813,53.711L63.245,51.455L66.648,51.139L68,48Z" style="fill:rgb(255,0,0);"/>
    </g>
    <g transform="matrix(1,0,0,1,-38.2105,-15.9357)">
        <g transform="matrix(16.6667,0,0,16.6667,49.5361,57.8928)">
            <path d="M0.384,-0.059C0.274,-0.059 0.256,-0.068 0.256,-0.13L0.256,-0.343L0.71,-0.343L0.71,-0.296L0.834,-0.296L0.834,-0.791L0.093,-0.791L0.093,-0.673L0.71,-0.673L0.71,-0.46L0.256,-0.46L0.256,-0.596L0.133,-0.596L0.133,-0.13C0.133,0.021 0.192,0.059 0.385,0.059L0.716,0.059C0.898,0.059 0.942,0.004 0.965,-0.184C0.93,-0.191 0.876,-0.211 0.845,-0.23C0.83,-0.085 0.814,-0.059 0.711,-0.059L0.384,-0.059Z" style="fill:rgb(255,0,0);fill-rule:nonzero;"/>
        </g>
        <g transform="matrix(16.6667,0,0,16.6667,66.2027,57.8928)">
            <path d="M0.461,-0.375L0.461,-0.474L0.584,-0.474L0.584,-0.375L0.461,-0.375ZM0.826,-0.474L0.826,-0.375L0.702,-0.375L0.702,-0.474L0.826,-0.474ZM0.94,-0.279L0.94,-0.571L0.702,-0.571L0.702,-0.641L0.967,-0.641L0.967,-0.749L0.702,-0.749L0.702,-0.84L0.584,-0.84L0.584,-0.749L0.34,-0.749C0.349,-0.771 0.358,-0.792 0.367,-0.813L0.257,-0.849C0.203,-0.707 0.11,-0.566 0.015,-0.476C0.035,-0.447 0.067,-0.383 0.078,-0.354C0.106,-0.382 0.133,-0.414 0.16,-0.448L0.16,0.089L0.273,0.089L0.273,-0.618C0.295,-0.656 0.315,-0.695 0.333,-0.733L0.333,-0.641L0.584,-0.641L0.584,-0.571L0.354,-0.571L0.354,-0.279L0.577,-0.279C0.571,-0.238 0.56,-0.201 0.54,-0.165C0.503,-0.195 0.471,-0.229 0.447,-0.268L0.35,-0.238C0.384,-0.181 0.424,-0.13 0.473,-0.089C0.43,-0.056 0.371,-0.03 0.291,-0.012C0.315,0.013 0.35,0.061 0.365,0.087C0.454,0.061 0.522,0.024 0.57,-0.02C0.663,0.033 0.777,0.068 0.912,0.085C0.927,0.054 0.958,0.005 0.983,-0.021C0.848,-0.033 0.733,-0.061 0.641,-0.105C0.671,-0.158 0.688,-0.217 0.696,-0.279L0.94,-0.279Z" style="fill:rgb(255,0,0);fill-rule:nonzero;"/>
        </g>
        <g transform="matrix(16.6667,0,0,16.6667,82.8694,57.8928)">
            <path d="M0.57,-0.317L0.57,-0.44L0.781,-0.44L0.781,-0.317L0.57,-0.317ZM0.259,-0.317C0.261,-0.354 0.262,-0.39 0.262,-0.422L0.262,-0.44L0.45,-0.44L0.45,-0.317L0.259,-0.317ZM0.45,-0.667L0.45,-0.551L0.262,-0.551L0.262,-0.667L0.45,-0.667ZM0.781,-0.551L0.57,-0.551L0.57,-0.667L0.781,-0.667L0.781,-0.551ZM0.899,-0.78L0.144,-0.78L0.144,-0.423C0.144,-0.283 0.135,-0.105 0.026,0.015C0.053,0.029 0.101,0.07 0.12,0.092C0.192,0.014 0.228,-0.096 0.246,-0.205L0.45,-0.205L0.45,0.074L0.57,0.074L0.57,-0.205L0.781,-0.205L0.781,-0.055C0.781,-0.037 0.774,-0.031 0.755,-0.031C0.737,-0.031 0.671,-0.03 0.615,-0.033C0.63,-0.002 0.649,0.049 0.653,0.081C0.743,0.082 0.804,0.08 0.845,0.06C0.885,0.042 0.899,0.01 0.899,-0.054L0.899,-0.78Z" style="fill:rgb(255,0,0);fill-rule:nonzero;"/>
        </g>
    </g>
</svg>
