<?xml version="1.0" encoding="UTF-8" standalone="no"?>
<!DOCTYPE svg PUBLIC "-//W3C//DTD SVG 1.1//EN" "http://www.w3.org/Graphics/SVG/1.1/DTD/svg11.dtd">
<svg width="100%" height="100%" viewBox="0 0 72 72" version="1.1" xmlns="http://www.w3.org/2000/svg" xmlns:xlink="http://www.w3.org/1999/xlink" xml:space="preserve" xmlns:serif="http://www.serif.com/" style="fill-rule:evenodd;clip-rule:evenodd;stroke-linecap:round;stroke-linejoin:round;stroke-miterlimit:1.5;">
    <g transform="matrix(1,0,0,1,-29.5,-31.5)">
        <circle cx="65.5" cy="67.5" r="34.5" style="fill:none;stroke:rgb(26,26,26);stroke-width:2.57px;"/>
    </g>
    <g transform="matrix(1,0,0,1,-28,-28)">
        <path d="M81.869,49.048C78.618,45.168 74.128,42.361 69.011,41.238L69.31,39.877C74.729,41.066 79.484,44.037 82.929,48.144L81.869,49.048ZM45.071,48.144C48.516,44.037 53.271,41.066 58.69,39.877L58.989,41.238C53.872,42.361 49.382,45.168 46.131,49.048L45.071,48.144Z" style="fill:rgb(26,26,26);"/>
    </g>
    <g transform="matrix(0.796849,0,0,0.796849,-18.1857,-30.0403)">
        <path d="M68,48L69.352,51.139L72.755,51.455L70.187,53.711L70.939,57.045L68,55.3L65.061,57.045L65.813,53.711L63.245,51.455L66.648,51.139L68,48Z" style="fill:rgb(26,26,26);"/>
    </g>
    <g transform="matrix(1,0,0,-1,-28,100.048)">
        <path d="M81.869,49.048C78.618,45.168 74.128,42.361 69.011,41.238L69.31,39.877C74.729,41.066 79.484,44.037 82.929,48.144L81.869,49.048ZM45.071,48.144C48.516,44.037 53.271,41.066 58.69,39.877L58.989,41.238C53.872,42.361 49.382,45.168 46.131,49.048L45.071,48.144Z" style="fill:rgb(26,26,26);"/>
    </g>
    <g transform="matrix(0.797166,0,0,0.797166,-18.2073,17.6394)">
        <path d="M68,48L69.352,51.139L72.755,51.455L70.187,53.711L70.939,57.045L68,55.3L65.061,57.045L65.813,53.711L63.245,51.455L66.648,51.139L68,48Z" style="fill:rgb(26,26,26);"/>
    </g>
    <g transform="matrix(1,0,0,1,-38.2105,-15.9357)">
        <text x="49.536px" y="57.893px" style="font-family:'SourceHanSansSC-Bold', 'Source Han Sans SC', sans-serif;font-weight:700;font-size:16.667px;fill:rgb(26,26,26);">已过期</text>
    </g>
</svg>
